<svg width="139" height="40" viewBox="0 0 139 40" fill="none" xmlns="http://www.w3.org/2000/svg">
<circle cx="20" cy="20" r="20" fill="#0E21E8"/>
<path d="M11.62 13.64L9.92 13.38V12.14H16.32V13.38L14.56 13.64V25.6L16.32 25.82V27H9.92V25.8L11.62 25.6V13.64ZM25.2027 27.22C22.936 27.22 21.2027 26.5467 20.0027 25.2C18.8027 23.84 18.2027 21.9867 18.2027 19.64C18.2027 18.0933 18.516 16.7467 19.1427 15.6C19.7827 14.44 20.656 13.5467 21.7627 12.92C22.8693 12.2933 24.1227 11.98 25.5227 11.98C26.1093 11.98 26.676 12.02 27.2227 12.1C27.7693 12.1667 28.416 12.26 29.1627 12.38C29.7227 12.4733 30.0293 12.52 30.0827 12.52L29.8627 16.64H28.0227L27.4027 13.78C27.256 13.6333 27.0027 13.5133 26.6427 13.42C26.2827 13.3267 25.8227 13.28 25.2627 13.28C24.1293 13.28 23.216 13.8067 22.5227 14.86C21.8427 15.9 21.5027 17.4133 21.5027 19.4C21.5027 21.32 21.8293 22.8867 22.4827 24.1C23.136 25.3133 24.0893 25.92 25.3427 25.92C25.9427 25.92 26.4027 25.8667 26.7227 25.76C27.056 25.64 27.336 25.4733 27.5627 25.26L28.4427 23.2L30.1227 23.36L29.7227 26.46C29.4427 26.4867 29.1627 26.54 28.8827 26.62C28.616 26.6867 28.4493 26.7267 28.3827 26.74C27.8493 26.8867 27.3493 27 26.8827 27.08C26.4293 27.1733 25.8693 27.22 25.2027 27.22Z" fill="white"/>
<path d="M58.358 13.976L56.828 13.742V12.626H62.588V13.742L61.004 13.976V24.74L62.588 24.938V26H56.828V24.92L58.358 24.74V13.976ZM65.5784 17.702L64.4264 17.378V16.136L67.4144 15.758H67.4684L67.9184 16.118V16.82L67.9004 17.252C68.3204 16.856 68.8664 16.514 69.5384 16.226C70.2104 15.938 70.8884 15.794 71.5724 15.794C72.3044 15.794 72.8744 15.932 73.2824 16.208C73.7024 16.472 74.0024 16.892 74.1824 17.468C74.3624 18.044 74.4524 18.824 74.4524 19.808V24.776L75.5504 24.92V26H70.9064V24.92L71.8784 24.776V19.808C71.8784 19.184 71.8364 18.698 71.7524 18.35C71.6684 17.99 71.5124 17.732 71.2844 17.576C71.0684 17.408 70.7564 17.324 70.3484 17.324C69.6644 17.324 68.9324 17.618 68.1524 18.206V24.758L69.2324 24.92V26H64.5344V24.92L65.5784 24.758V17.702ZM83.1943 26.198C81.1543 26.198 79.5943 25.592 78.5143 24.38C77.4343 23.156 76.8943 21.488 76.8943 19.376C76.8943 17.984 77.1763 16.772 77.7403 15.74C78.3163 14.696 79.1023 13.892 80.0983 13.328C81.0943 12.764 82.2223 12.482 83.4823 12.482C84.0103 12.482 84.5203 12.518 85.0123 12.59C85.5043 12.65 86.0863 12.734 86.7583 12.842C87.2623 12.926 87.5383 12.968 87.5863 12.968L87.3883 16.676H85.7323L85.1743 14.102C85.0423 13.97 84.8143 13.862 84.4903 13.778C84.1663 13.694 83.7523 13.652 83.2483 13.652C82.2283 13.652 81.4063 14.126 80.7823 15.074C80.1703 16.01 79.8643 17.372 79.8643 19.16C79.8643 20.888 80.1583 22.298 80.7463 23.39C81.3343 24.482 82.1923 25.028 83.3203 25.028C83.8603 25.028 84.2743 24.98 84.5623 24.884C84.8623 24.776 85.1143 24.626 85.3183 24.434L86.1103 22.58L87.6223 22.724L87.2623 25.514C87.0103 25.538 86.7583 25.586 86.5063 25.658C86.2663 25.718 86.1163 25.754 86.0563 25.766C85.5763 25.898 85.1263 26 84.7063 26.072C84.2983 26.156 83.7943 26.198 83.1943 26.198ZM89.39 24.938L90.578 24.794V17.702L89.426 17.378V16.136L92.216 15.758H92.27L92.72 16.118V16.514L92.666 17.972H92.72C92.804 17.732 93.002 17.438 93.314 17.09C93.626 16.73 94.016 16.418 94.484 16.154C94.964 15.878 95.48 15.74 96.032 15.74C96.296 15.74 96.524 15.776 96.716 15.848V18.548C96.356 18.296 95.918 18.17 95.402 18.17C94.526 18.17 93.764 18.404 93.116 18.872V24.776L95.204 24.938V26H89.39V24.938ZM99.8247 30.482C99.6087 30.482 99.3747 30.464 99.1227 30.428C98.8827 30.392 98.7087 30.35 98.6007 30.302V28.376C98.6847 28.424 98.8527 28.472 99.1047 28.52C99.3567 28.568 99.5847 28.592 99.7887 28.592C100.389 28.592 100.881 28.394 101.265 27.998C101.661 27.602 102.027 26.936 102.363 26H101.391L98.0067 17.27L97.1967 17.036V15.992H102.147V17.036L100.833 17.252L102.435 22.238L103.083 24.362L103.641 22.238L105.117 17.252L103.983 17.036V15.992H107.889V17.036L107.007 17.252C106.347 19.268 105.693 21.212 105.045 23.084C104.397 24.956 104.019 26.006 103.911 26.234C103.527 27.242 103.161 28.046 102.813 28.646C102.465 29.246 102.051 29.702 101.571 30.014C101.091 30.326 100.509 30.482 99.8247 30.482ZM118.855 20.672C118.855 21.68 118.645 22.604 118.225 23.444C117.817 24.284 117.211 24.956 116.407 25.46C115.615 25.952 114.667 26.198 113.563 26.198C113.323 26.198 113.071 26.174 112.807 26.126C112.555 26.09 112.351 26.042 112.195 25.982L112.249 27.476V29.114L113.923 29.33V30.356H108.577V29.33L109.747 29.114V17.702L108.577 17.378V16.136L111.547 15.758H111.583L112.033 16.118V17.126C112.333 16.754 112.741 16.43 113.257 16.154C113.773 15.878 114.337 15.74 114.949 15.74C116.089 15.74 117.025 16.148 117.757 16.964C118.489 17.768 118.855 19.004 118.855 20.672ZM114.013 17.234C113.653 17.234 113.311 17.312 112.987 17.468C112.663 17.624 112.417 17.798 112.249 17.99V24.668C112.333 24.788 112.501 24.89 112.753 24.974C113.017 25.058 113.305 25.1 113.617 25.1C114.397 25.1 115.015 24.764 115.471 24.092C115.939 23.408 116.173 22.34 116.173 20.888C116.173 19.664 115.975 18.752 115.579 18.152C115.183 17.54 114.661 17.234 114.013 17.234ZM123.711 26.162C122.955 26.162 122.397 25.988 122.037 25.64C121.677 25.292 121.497 24.74 121.497 23.984V17.378H120.327V16.442C120.423 16.406 120.597 16.346 120.849 16.262C121.101 16.166 121.293 16.088 121.425 16.028C121.629 15.872 121.803 15.602 121.947 15.218C122.055 14.966 122.253 14.342 122.541 13.346H123.981L124.053 15.992H126.807V17.378H124.071V22.436C124.071 23.108 124.089 23.582 124.125 23.858C124.161 24.134 124.239 24.314 124.359 24.398C124.479 24.47 124.689 24.506 124.989 24.506C125.289 24.506 125.601 24.476 125.925 24.416C126.249 24.344 126.519 24.26 126.735 24.164L127.077 25.172C126.741 25.424 126.249 25.652 125.601 25.856C124.953 26.06 124.323 26.162 123.711 26.162ZM128.394 21.014C128.394 19.886 128.616 18.926 129.06 18.134C129.516 17.342 130.122 16.748 130.878 16.352C131.634 15.944 132.456 15.74 133.344 15.74C134.856 15.74 136.02 16.208 136.836 17.144C137.664 18.068 138.078 19.328 138.078 20.924C138.078 22.064 137.85 23.036 137.394 23.84C136.95 24.632 136.35 25.226 135.594 25.622C134.85 26.006 134.028 26.198 133.128 26.198C131.628 26.198 130.464 25.736 129.636 24.812C128.808 23.876 128.394 22.61 128.394 21.014ZM133.272 25.028C134.628 25.028 135.306 23.72 135.306 21.104C135.306 19.736 135.144 18.698 134.82 17.99C134.496 17.27 133.968 16.91 133.236 16.91C131.844 16.91 131.148 18.218 131.148 20.834C131.148 22.202 131.316 23.246 131.652 23.966C132 24.674 132.54 25.028 133.272 25.028Z" fill="white"/>
</svg>
